<?xml version="1.0" encoding="utf-8"?>
<!-- Generator: Adobe Illustrator 27.3.1, SVG Export Plug-In . SVG Version: 6.00 Build 0)  -->
<svg version="1.0" id="Layer_1" xmlns="http://www.w3.org/2000/svg" xmlns:xlink="http://www.w3.org/1999/xlink" x="0px" y="0px"
	 width="220px" height="55px" viewBox="0 0 220 55" style="enable-background:new 0 0 220 55;" xml:space="preserve">
<style type="text/css">
	.st0{fill:#FFFFFF;}
</style>
<g>
	<g>
		<g>
			<path class="st0" d="M17.8,17.3H7.2L9,8.7h32.7l-1.8,8.6H29.3l-7.2,33.9H10.6L17.8,17.3z"/>
			<path class="st0" d="M30.1,33.5c0.9-4.3,1.5-6.9,1.7-8.7h8.4c0,0.8-0.3,2.9-0.7,4.7c1.7-3.2,4.1-5.1,8.5-5.1l-1.9,8.7
				c-5.2-0.2-7.6,1.8-8.6,6.4l-2.3,11.1h-8.8L30.1,33.5z"/>
			<path class="st0" d="M67.4,43.7c-0.6,2.9-1.2,5.5-1.4,6.9h-8.4c0-0.6,0.1-1.3,0.3-2.3c-1.8,2.1-3.9,2.8-6.9,2.8
				c-4.2,0-6.9-2.7-6.9-6.9c0-5.3,3.4-8.9,11.1-9.7c1.9-0.2,3.7-0.4,5.7-0.4l0.2-0.9c0.5-2.2,0-3.5-2.2-3.5c-2.3,0-2.8,1.5-3.2,2.6
				h-8.4c0.9-4,3.5-7.9,12.1-7.9c7.8,0,11.6,3.2,10,10.4L67.4,43.7z M59.9,39c-1,0-1.9,0-3,0.2c-2.1,0.3-3.9,1.4-3.9,3.8
				c0,1.3,0.6,2.2,2.2,2.2c3,0,3.9-2.5,4.5-5.5L59.9,39z"/>
			<path class="st0" d="M79.7,24.9c0.1,6.3,0.2,14.2,0,17.7h0.2c1.7-4.7,5.1-12.7,7.2-17.7h9.3c-2.8,5.5-10.3,20.2-13.1,25.8H72.9
				L71,24.9H79.7z"/>
			<path class="st0" d="M102,39.6c-0.1,0.5-0.2,1.3-0.2,2c0,2,0.6,3.6,2.8,3.6c2.2,0,2.9-1.3,3.5-2.6h8.6c-1.7,4.7-5,8.5-12.8,8.5
				c-8.1,0-10.8-4.5-10.8-10.7c0-5.6,3.3-16.2,14.6-16.2c7.6,0,10.6,4.4,10.6,9.7c0,1.3-0.2,3.2-0.8,5.6H102z M109.7,34.7
				c0.2-0.7,0.2-1.3,0.2-1.8c0-1.6-0.7-2.9-2.7-2.9c-2.5,0-3.7,2.5-4.2,4.8H109.7z"/>
			<path class="st0" d="M117.3,50.6l7.5-35.4h8.8L126,50.6H117.3z"/>
			<path class="st0" d="M136.6,17h12.2c7.4,0,10.9,3.6,10.9,8.3c0,4.1-2.5,6.6-5.6,7.7c1.7,0.8,4.3,2.9,4.3,6.8
				c0,6.1-5.1,10.8-13.1,10.8h-15.8L136.6,17z M139.5,44.7h3.9c3.3,0,5.7-1.5,5.7-4.9c0-2.6-1.5-3.8-4.5-3.8h-3.2L139.5,44.7z
				 M146,30.1c3.2,0,4.8-1.4,4.8-4c0-2.3-1.5-3.1-3.7-3.1h-3l-1.5,7.1H146z"/>
			<path class="st0" d="M186.1,34.9c0,6.2-3.1,16.3-15,16.3c-8,0-11.1-4.5-11.1-10.6c0-6.7,3.9-16.2,14.9-16.2
				C182.9,24.3,186.1,29.2,186.1,34.9z M169,41.2c0,2.6,0.8,3.9,2.8,3.9c3.9,0,5.5-8.2,5.5-11.1c0-2.5-0.8-3.6-2.9-3.6
				C170.5,30.4,169,38,169,41.2z"/>
			<path class="st0" d="M196.7,24.9c0.8,2.9,1.5,5.6,1.9,7.4h0.2c1.1-2,2.6-4.6,4.5-7.4h9.6l-10,12.5l4.6,13.3h-9
				c-0.7-2.8-1.5-6.3-1.8-7.7h-0.1c-0.6,1.1-2.9,4.8-4.8,7.7h-9.5l10-13.1l-4.4-12.6H196.7z"/>
		</g>
		<polygon class="st0" points="57.6,13 48.5,3.8 48.5,8.7 28.7,8.7 28.7,17.3 48.5,17.3 48.5,22.2 		"/>
	</g>
</g>
</svg>
